<?xml version="1.0" encoding="UTF-8" standalone="no"?>
<!DOCTYPE svg PUBLIC "-//W3C//DTD SVG 1.1//EN" "http://www.w3.org/Graphics/SVG/1.1/DTD/svg11.dtd">
<svg width="100%" height="100%" viewBox="0 0 124 124" version="1.1" xmlns="http://www.w3.org/2000/svg" xmlns:xlink="http://www.w3.org/1999/xlink" xml:space="preserve" xmlns:serif="http://www.serif.com/" style="fill-rule:evenodd;clip-rule:evenodd;stroke-linecap:round;stroke-linejoin:round;stroke-miterlimit:1.5;">
    <g transform="matrix(1,0,0,1,-1174.21,-586.067)">
        <g>
            <g transform="matrix(1.39812,0,0,1.77998,-498.863,-734.875)">
                <ellipse cx="1240.93" cy="776.888" rx="44.275" ry="34.777" style="fill:rgba(119, 150, 203, 1);"/>
            </g>
            <g transform="matrix(0.385017,0,0,0.385017,713.163,414.569)">
                <path class="nav-svg" d="M1357.91,631.105C1354.05,620.552 1348.09,616.683 1339.56,623.325C1329.1,639.334 1327.12,654.43 1311.24,658.318C1294,659.788 1286.25,651.443 1287.06,633.098C1273.52,647.962 1287.93,677.652 1311.51,677.224C1338.71,676.731 1353.21,670.336 1357.71,659.284"/>
                <g transform="matrix(-1,0,0,1,2715.55,0)">
                    <path class="nav-svg"  d="M1357.63,631.105C1353.77,620.552 1348.09,616.683 1339.56,623.325C1329.1,639.334 1327.12,654.43 1311.24,658.318C1294,659.788 1286.25,651.443 1287.06,633.098C1273.52,647.962 1287.93,677.652 1311.51,677.224C1338.71,676.731 1353.34,670.336 1357.84,659.284"/>
                </g>
                <path class="nav-svg"  d="M1247.82,548.079C1278.24,531.224 1309.69,531.55 1341.97,545.289C1345.34,583.166 1333.46,605.895 1300.53,607.695C1272.34,605.418 1255.32,597.387 1247.82,548.079Z"/>
                <g transform="matrix(-1,0,0,1,2716.52,0)">
                    <path class="nav-svg"  d="M1247.82,548.079C1278.24,531.224 1309.69,531.55 1341.97,545.289C1345.34,583.166 1333.46,605.895 1300.53,607.695C1272.34,605.418 1255.32,597.387 1247.82,548.079Z"/>
                </g>
                <path class="nav-svg"  d="M1341.97,545.289C1352.07,540.422 1362.84,539.859 1374.55,545.289"/>
            </g>
        </g>
    </g>
</svg>
