<?xml version="1.0" encoding="UTF-8" standalone="no"?>
<!DOCTYPE svg PUBLIC "-//W3C//DTD SVG 1.1//EN" "http://www.w3.org/Graphics/SVG/1.1/DTD/svg11.dtd">
<svg class="nav-svg" width="30px" height="30px" viewBox="0 0 104 104" version="1.1" xmlns="http://www.w3.org/2000/svg" xmlns:xlink="http://www.w3.org/1999/xlink" xml:space="preserve" xmlns:serif="http://www.serif.com/" style="fill-rule:evenodd;clip-rule:evenodd;stroke-linecap:round;stroke-linejoin:round;stroke-miterlimit:1.5;">
    <g transform="matrix(1,0,0,1,-1041.9,-317.858)">
        <g transform="matrix(0.693609,0,0,0.687804,903.119,263.498)">
            <path class="nav-svg" d="M318.638,81.943L211.624,81.943C209.33,81.943 207.13,82.862 205.507,84.498C203.885,86.134 202.974,88.353 202.974,90.666L202.974,218.61C202.974,223.428 206.847,227.333 211.624,227.333L338.497,227.333C340.791,227.333 342.991,226.414 344.614,224.778C346.236,223.142 347.147,220.923 347.147,218.61L347.147,110.78L318.638,81.943L318.638,129.231C318.638,131.545 317.726,133.763 316.104,135.399C314.482,137.035 312.281,137.954 309.987,137.954C293.233,137.954 256.534,137.954 239.779,137.954C237.485,137.954 235.285,137.035 233.662,135.399C232.04,133.763 231.129,131.545 231.129,129.231C231.129,113.487 231.129,81.943 231.129,81.943"/>
            <path class="nav-svg" d="M231.197,227.333L231.197,172.171C231.197,169.857 232.108,167.639 233.73,166.003C235.352,164.367 237.553,163.448 239.847,163.448C256.718,163.448 293.838,163.448 310.71,163.448C313.004,163.448 315.204,164.367 316.826,166.003C318.449,167.639 319.36,169.857 319.36,172.171C319.36,189.595 319.36,227.045 319.36,227.045"/>
            <g transform="matrix(1,0,0,1,-84.7649,-22.3881)">
                <rect class="nav-svg" x="374.286" y="119.034" width="12.211" height="25.446">
            </g>
        </g>
    </g>
</svg>

